<svg id="icon4" xmlns="http://www.w3.org/2000/svg" viewBox="1453 1714 114 114">
  <defs>
    <style>
      .cls-1, .cls-2 {
        fill: #fff;
      }

      .cls-1 {
        opacity: 0.29;
      }

      .cls-3 {
        opacity: 0.8;
      }
    </style>
  </defs>
  <circle id="Ellipse_9" data-name="Ellipse 9" class="cls-1" cx="57" cy="57" r="57" transform="translate(1453 1714)"/>
  <circle id="Ellipse_10" data-name="Ellipse 10" class="cls-2" cx="33" cy="33" r="33" transform="translate(1477 1738)"/>
  <g id="digital-marketing" class="cls-3" transform="translate(1472.999 1733)">
    <g id="Group_30" data-name="Group 30" transform="translate(34.322 62.968)">
      <g id="Group_29" data-name="Group 29">
        <path id="Path_20" data-name="Path 20" d="M236.8,430.288a1.464,1.464,0,1,0,.429,1.035A1.476,1.476,0,0,0,236.8,430.288Z" transform="translate(-234.301 -429.859)"/>
      </g>
    </g>
    <g id="Group_32" data-name="Group 32" transform="translate(0.001 37.64)">
      <g id="Group_31" data-name="Group 31" transform="translate(0)">
        <path id="Path_21" data-name="Path 21" d="M43.8,269.2V258.422a1.465,1.465,0,0,0-2.012-1.359L16.544,267.229H8.414a8.413,8.413,0,0,0,0,16.827h.968v8.8a1.465,1.465,0,0,0,1.465,1.465h5.98a1.465,1.465,0,0,0,1.465-1.465v-8.09l23.494,9.449a1.465,1.465,0,0,0,2.011-1.359V282.074a6.6,6.6,0,0,0,0-12.873ZM15.362,291.388h-3.05v-7.332h3.05v7.332Zm0-10.262H8.414a5.484,5.484,0,1,1,0-10.967h6.949Zm25.5,9.558h0L18.293,281.6V269.683l16.029-6.456v14.537a1.465,1.465,0,0,0,2.93,0V262.048l3.616-1.456ZM43.8,279v-6.734a3.671,3.671,0,0,1,0,6.734Z" transform="translate(-0.001 -256.958)"/>
      </g>
    </g>
    <g id="Group_34" data-name="Group 34" transform="translate(53.151 54.899)">
      <g id="Group_33" data-name="Group 33">
        <path id="Path_22" data-name="Path 22" d="M372.594,374.775H364.3a1.465,1.465,0,0,0,0,2.93h8.294a1.465,1.465,0,0,0,0-2.93Z" transform="translate(-362.835 -374.775)"/>
      </g>
    </g>
    <g id="Group_36" data-name="Group 36" transform="translate(50.746 43.736)">
      <g id="Group_35" data-name="Group 35">
        <path id="Path_23" data-name="Path 23" d="M351.78,299a1.465,1.465,0,0,0-2.072,0l-2.861,2.861a1.465,1.465,0,0,0,2.072,2.072l2.861-2.861A1.465,1.465,0,0,0,351.78,299Z" transform="translate(-346.418 -298.57)"/>
      </g>
    </g>
    <g id="Group_38" data-name="Group 38" transform="translate(50.758 62.968)">
      <g id="Group_37" data-name="Group 37">
        <path id="Path_24" data-name="Path 24" d="M351.956,433.25,349,430.293a1.465,1.465,0,1,0-2.072,2.072l2.957,2.957a1.465,1.465,0,0,0,2.072-2.072Z" transform="translate(-346.499 -429.864)"/>
      </g>
    </g>
    <g id="Group_40" data-name="Group 40" transform="translate(7.911)">
      <g id="Group_39" data-name="Group 39">
        <path id="Path_25" data-name="Path 25" d="M115.231,0H87.985a5.866,5.866,0,0,0-5.859,5.859v.586H57.517A3.52,3.52,0,0,0,54,9.961V33.105a3.52,3.52,0,0,0,3.516,3.516H59.03v4.492a1.465,1.465,0,0,0,2.5,1.036l5.528-5.528h29.1a3.52,3.52,0,0,0,3.516-3.516V28.711h15.56a5.866,5.866,0,0,0,5.859-5.859V5.859A5.866,5.866,0,0,0,115.231,0ZM96.742,33.105a.587.587,0,0,1-.586.586h-29.7a1.465,1.465,0,0,0-1.036.429L61.96,37.577V35.156A1.465,1.465,0,0,0,60.5,33.691H57.517a.587.587,0,0,1-.586-.586V9.961a.587.587,0,0,1,.586-.586H82.126V22.852a5.866,5.866,0,0,0,5.859,5.859h8.757Zm21.419-10.254a2.933,2.933,0,0,1-2.93,2.93H87.985a2.933,2.933,0,0,1-2.93-2.93V5.859a2.933,2.933,0,0,1,2.93-2.93h27.246a2.933,2.933,0,0,1,2.93,2.93Z" transform="translate(-54.001)"/>
      </g>
    </g>
    <g id="Group_42" data-name="Group 42" transform="translate(49.181 7.102)">
      <g id="Group_41" data-name="Group 41">
        <path id="Path_26" data-name="Path 26" d="M347.959,54.47l-10.025-5.788a1.465,1.465,0,0,0-2.2,1.269V61.527a1.465,1.465,0,0,0,2.2,1.269l10.025-5.788a1.465,1.465,0,0,0,0-2.537Zm-9.293,4.519v-6.5l5.631,3.251Z" transform="translate(-335.736 -48.486)"/>
      </g>
    </g>
    <g id="Group_44" data-name="Group 44" transform="translate(15.31 15.381)">
      <g id="Group_43" data-name="Group 43">
        <path id="Path_27" data-name="Path 27" d="M120.625,105H105.977a1.465,1.465,0,0,0,0,2.93h14.648a1.465,1.465,0,0,0,0-2.93Z" transform="translate(-104.512 -105)"/>
      </g>
    </g>
    <g id="Group_46" data-name="Group 46" transform="translate(29.959 23.584)">
      <g id="Group_45" data-name="Group 45">
        <path id="Path_28" data-name="Path 28" d="M207.011,161.429a1.464,1.464,0,1,0,.429,1.036A1.475,1.475,0,0,0,207.011,161.429Z" transform="translate(-204.511 -161)"/>
      </g>
    </g>
    <g id="Group_48" data-name="Group 48" transform="translate(15.31 23.584)">
      <g id="Group_47" data-name="Group 47">
        <path id="Path_29" data-name="Path 29" d="M115.131,161h-9.154a1.465,1.465,0,1,0,0,2.93h9.154a1.465,1.465,0,0,0,0-2.93Z" transform="translate(-104.512 -161)"/>
      </g>
    </g>
  </g>
</svg>
