<svg id="icon2" xmlns="http://www.w3.org/2000/svg" viewBox="1453 1234 114 114">
  <defs>
    <style>
      .cls-1, .cls-2 {
        fill: #fff;
      }

      .cls-1 {
        opacity: 0.29;
      }

      .cls-3 {
        opacity: 0.8;
      }
    </style>
  </defs>
  <circle id="Ellipse_5" data-name="Ellipse 5" class="cls-1" cx="57" cy="57" r="57" transform="translate(1453 1234)"/>
  <circle id="Ellipse_6" data-name="Ellipse 6" class="cls-2" cx="33" cy="33" r="33" transform="translate(1477 1258)"/>
  <g id="creative-design" class="cls-3" transform="translate(1472 1232.246)">
    <g id="Group_62" data-name="Group 62" transform="translate(0 24.754)">
      <g id="Group_61" data-name="Group 61">
        <path id="Path_36" data-name="Path 36" d="M69.421,24.754H61.2a1.113,1.113,0,0,0,0,2.227h8.219a4.357,4.357,0,0,1,4.352,4.352v2.714H65.651a1.113,1.113,0,0,0-1.113,1.113v34H43.982V57.915a5.934,5.934,0,0,0-.728-2.861A7.7,7.7,0,0,0,45.725,49.4,6.387,6.387,0,0,0,45.4,47.56a1.1,1.1,0,0,0-.032-.109c0-.014-.011-.026-.016-.039-.928-2.866-3.442-6.585-5.624-9.474a2.169,2.169,0,0,0-3.462,0c-2.734,3.62-5.994,8.547-5.994,11.461a7.7,7.7,0,0,0,2.472,5.657,5.958,5.958,0,0,0-.729,2.86V69.156H2.227V51.646a11.416,11.416,0,0,1,3.951,8.171,3.393,3.393,0,1,0,2.229-.005A13.648,13.648,0,0,0,2.282,48.9H11.9a3.393,3.393,0,1,0,0-2.227H2.227V31.333a4.357,4.357,0,0,1,4.352-4.352H56.657a1.113,1.113,0,0,0,0-2.227H6.579A6.587,6.587,0,0,0,0,31.333V78.072A3.536,3.536,0,0,0,3.532,81.6h9.089a1.113,1.113,0,1,0,0-2.227H3.532a1.307,1.307,0,0,1-1.305-1.305V71.383H73.773v6.689a1.307,1.307,0,0,1-1.305,1.305H67.338a1.113,1.113,0,0,0,0,2.227h5.131A3.536,3.536,0,0,0,76,78.072V31.333A6.586,6.586,0,0,0,69.421,24.754ZM7.3,61.852a1.166,1.166,0,1,1-1.166,1.166A1.167,1.167,0,0,1,7.3,61.852Zm7.806-15.227A1.166,1.166,0,1,1,13.94,47.79,1.167,1.167,0,0,1,15.106,46.624ZM38,39.34A42.406,42.406,0,0,1,42.856,47.1a10.451,10.451,0,0,1-8.97-1.513A50.917,50.917,0,0,1,38,39.34Zm3.755,29.815h-7.51V57.915a3.746,3.746,0,0,1,.35-1.585,7.705,7.705,0,0,0,6.809,0,3.729,3.729,0,0,1,.352,1.584ZM38,54.9a5.5,5.5,0,0,1-5.5-5.5,5.281,5.281,0,0,1,.424-1.766,12.37,12.37,0,0,0,6.913,2.107,14.066,14.066,0,0,0,3.654-.5c0,.055.006.109.006.16A5.5,5.5,0,0,1,38,54.9ZM73.773,69.156H66.765V68.48h1.989a1.113,1.113,0,0,0,0-2.227H66.765V64.624h1.989a1.113,1.113,0,0,0,0-2.227H66.765v-1.63h1.989a1.113,1.113,0,0,0,0-2.227H66.765V56.912h3.5a1.113,1.113,0,0,0,0-2.227h-3.5v-1.63h1.989a1.113,1.113,0,0,0,0-2.227H66.765V49.2h1.989a1.113,1.113,0,0,0,0-2.227H66.765V45.344h1.989a1.113,1.113,0,0,0,0-2.227H66.765v-1.63h3.5a1.113,1.113,0,0,0,0-2.227h-3.5V36.273h7.009Z" transform="translate(0 -24.754)"/>
      </g>
    </g>
    <g id="Group_64" data-name="Group 64" transform="translate(16.052 79.377)">
      <g id="Group_63" data-name="Group 63">
        <path id="Path_37" data-name="Path 37" d="M154.882,392.74H109.255a1.113,1.113,0,0,0,0,2.227h10.786a14.782,14.782,0,0,1-5.1,7.717,2.274,2.274,0,0,0,1.377,4.085h27.542a2.274,2.274,0,0,0,1.377-4.085,14.792,14.792,0,0,1-5.1-7.717h14.745a1.113,1.113,0,0,0,0-2.227Zm-10.991,11.717a.123.123,0,0,1,.02.018.085.085,0,0,1-.022.064.087.087,0,0,1-.029,0H116.319a.1.1,0,0,1-.028,0,.086.086,0,0,1-.023-.063.084.084,0,0,1,.02-.019,17.189,17.189,0,0,0,6.064-9.491h15.475A17.2,17.2,0,0,0,143.891,404.457Z" transform="translate(-108.142 -392.74)"/>
      </g>
    </g>
    <g id="Group_66" data-name="Group 66" transform="translate(31.152 30.606)">
      <g id="Group_65" data-name="Group 65">
        <path id="Path_38" data-name="Path 38" d="M210.978,64.175a1.113,1.113,0,0,0-1.113,1.113v.25a1.113,1.113,0,0,0,2.227,0v-.25A1.113,1.113,0,0,0,210.978,64.175Z" transform="translate(-209.865 -64.175)"/>
      </g>
    </g>
    <g id="Group_68" data-name="Group 68" transform="translate(36.887 30.606)">
      <g id="Group_67" data-name="Group 67">
        <path id="Path_39" data-name="Path 39" d="M249.613,64.175a1.113,1.113,0,0,0-1.113,1.113v.25a1.113,1.113,0,0,0,2.227,0v-.25A1.113,1.113,0,0,0,249.613,64.175Z" transform="translate(-248.5 -64.175)"/>
      </g>
    </g>
    <g id="Group_70" data-name="Group 70" transform="translate(42.622 30.606)">
      <g id="Group_69" data-name="Group 69">
        <path id="Path_40" data-name="Path 40" d="M288.248,64.175a1.113,1.113,0,0,0-1.113,1.113v.25a1.113,1.113,0,0,0,2.227,0v-.25A1.113,1.113,0,0,0,288.248,64.175Z" transform="translate(-287.135 -64.175)"/>
      </g>
    </g>
    <g id="Group_72" data-name="Group 72" transform="translate(35.228 72.608)">
      <g id="Group_71" data-name="Group 71">
        <path id="Path_41" data-name="Path 41" d="M240.1,347.138a2.772,2.772,0,1,0,2.772,2.772A2.775,2.775,0,0,0,240.1,347.138Zm0,3.317a.545.545,0,1,1,.545-.545A.546.546,0,0,1,240.1,350.455Z" transform="translate(-237.327 -347.138)"/>
      </g>
    </g>
  </g>
</svg>
