<svg id="icon3" xmlns="http://www.w3.org/2000/svg" viewBox="1453 1474 114 114">
  <defs>
    <style>
      .cls-1, .cls-2 {
        fill: #fff;
      }

      .cls-1 {
        opacity: 0.29;
      }

      .cls-3 {
        opacity: 0.8;
      }
    </style>
  </defs>
  <circle id="Ellipse_7" data-name="Ellipse 7" class="cls-1" cx="57" cy="57" r="57" transform="translate(1453 1474)"/>
  <circle id="Ellipse_8" data-name="Ellipse 8" class="cls-2" cx="33" cy="33" r="33" transform="translate(1477 1498)"/>
  <g id="graphic-design" class="cls-3" transform="translate(1473 1494)">
    <g id="Group_28" data-name="Group 28">
      <g id="Group_27" data-name="Group 27">
        <path id="Path_18" data-name="Path 18" d="M80.773,63.734h-.117A7.653,7.653,0,0,0,72.922,56H15.734A7.653,7.653,0,0,0,8,63.734V99.828a7.653,7.653,0,0,0,7.734,7.734H36.477l-1.758,8.2H26.75a1.107,1.107,0,0,0-1.172,1.172v4.688A1.107,1.107,0,0,0,26.75,122.8H61.906a1.107,1.107,0,0,0,1.172-1.172v-4.687a1.107,1.107,0,0,0-1.172-1.172H54.055l-1.758-8.2H73.039a7.727,7.727,0,0,0,7.734-7.734ZM60.734,118.109v2.344H27.922v-2.344Zm-23.672-2.344,1.758-8.2H49.836l1.758,8.2Zm41.25-15.937a5.453,5.453,0,0,1-5.391,5.391H15.734a5.453,5.453,0,0,1-5.391-5.391V95.844H78.313Zm0-6.328H10.344V63.734a5.453,5.453,0,0,1,5.391-5.391H72.922a5.453,5.453,0,0,1,5.391,5.391V93.5Z" transform="translate(-6.828 -47.797)"/>
        <circle id="Ellipse_2" data-name="Ellipse 2" cx="2.344" cy="2.344" r="2.344" transform="translate(35.156 50.391)"/>
        <rect id="Rectangle_4" data-name="Rectangle 4" width="2.344" height="2.344" transform="translate(55.078 15.234)"/>
        <rect id="Rectangle_5" data-name="Rectangle 5" width="2.344" height="2.344" transform="translate(59.766 15.234)"/>
        <rect id="Rectangle_6" data-name="Rectangle 6" width="2.344" height="2.344" transform="translate(64.453 15.234)"/>
        <rect id="Rectangle_7" data-name="Rectangle 7" width="2.344" height="2.344" transform="translate(59.766 19.922)"/>
        <rect id="Rectangle_8" data-name="Rectangle 8" width="2.344" height="2.344" transform="translate(64.453 19.922)"/>
        <rect id="Rectangle_9" data-name="Rectangle 9" width="23.438" height="2.344" transform="translate(43.359 38.672)"/>
        <rect id="Rectangle_10" data-name="Rectangle 10" width="19.922" height="2.344" transform="translate(46.875 33.984)"/>
        <rect id="Rectangle_11" data-name="Rectangle 11" width="16.406" height="2.344" transform="translate(50.391 29.297)"/>
        <rect id="Rectangle_12" data-name="Rectangle 12" width="2.344" height="2.344" transform="translate(64.453 24.609)"/>
        <path id="Path_19" data-name="Path 19" d="M85.883,113.492a1.064,1.064,0,0,0-1.172,0l-5.273,2.7v-1.641a1.107,1.107,0,0,0-1.172-1.172H72.289a3.987,3.987,0,0,0,.117-1.172,8.2,8.2,0,1,0-9.375,8.086v8.32a1.107,1.107,0,0,0,1.172,1.172H78.266a1.107,1.107,0,0,0,1.172-1.172v-1.641l5.273,2.7a1.057,1.057,0,0,0,.586.117,1.107,1.107,0,0,0,1.172-1.172V114.547A1.4,1.4,0,0,0,85.883,113.492Zm-22.852,1.055v3.4a5.8,5.8,0,0,1-4.57-6.914,5.894,5.894,0,0,1,5.742-4.687,5.8,5.8,0,0,1,5.859,5.859,3.987,3.987,0,0,1-.117,1.172H64.2A1.107,1.107,0,0,0,63.031,114.547Zm5.859,1.172a5.429,5.429,0,0,1-3.516,2.227v-2.227Zm8.2,7.5-3.281-1.641,3.281-1.641Zm0-5.859-6.445,3.164a1.242,1.242,0,0,0,0,2.109l6.445,3.164v1.641H65.375v-7.148a8.106,8.106,0,0,0,6.211-4.57h5.508Zm7.031,9.375-4.687-2.344v-5.625l4.688-2.344Z" transform="translate(-47.797 -88.766)"/>
        <rect id="Rectangle_13" data-name="Rectangle 13" width="2.344" height="2.344" transform="translate(72.656)"/>
        <rect id="Rectangle_14" data-name="Rectangle 14" width="2.344" height="2.344" transform="translate(72.656 4.688)"/>
        <rect id="Rectangle_15" data-name="Rectangle 15" width="2.344" height="2.344" transform="translate(67.969)"/>
        <rect id="Rectangle_16" data-name="Rectangle 16" width="2.344" height="2.344"/>
        <rect id="Rectangle_17" data-name="Rectangle 17" width="2.344" height="2.344" transform="translate(4.688)"/>
        <rect id="Rectangle_18" data-name="Rectangle 18" width="2.344" height="2.344" transform="translate(0 4.688)"/>
        <rect id="Rectangle_19" data-name="Rectangle 19" width="2.344" height="2.344" transform="translate(0 72.656)"/>
        <rect id="Rectangle_20" data-name="Rectangle 20" width="2.344" height="2.344" transform="translate(0 67.969)"/>
        <rect id="Rectangle_21" data-name="Rectangle 21" width="2.344" height="2.344" transform="translate(4.688 72.656)"/>
        <rect id="Rectangle_22" data-name="Rectangle 22" width="2.344" height="2.344" transform="translate(72.656 72.656)"/>
        <rect id="Rectangle_23" data-name="Rectangle 23" width="2.344" height="2.344" transform="translate(67.969 72.656)"/>
        <rect id="Rectangle_24" data-name="Rectangle 24" width="2.344" height="2.344" transform="translate(72.656 67.969)"/>
      </g>
    </g>
  </g>
</svg>
