<svg id="icon5" xmlns="http://www.w3.org/2000/svg" viewBox="1453 1954 114 114">
  <defs>
    <style>
      .cls-1, .cls-2 {
        fill: #fff;
      }

      .cls-1 {
        opacity: 0.29;
      }

      .cls-3 {
        opacity: 0.8;
      }
    </style>
  </defs>
  <circle id="Ellipse_11" data-name="Ellipse 11" class="cls-1" cx="57" cy="57" r="57" transform="translate(1453 1954)"/>
  <circle id="Ellipse_12" data-name="Ellipse 12" class="cls-2" cx="33" cy="33" r="33" transform="translate(1477 1978)"/>
  <g id="computer_1_" data-name="computer (1)" class="cls-3" transform="translate(1453.746 1970)">
    <g id="Group_2" data-name="Group 2" transform="translate(19.254 16.106)">
      <g id="Group_1" data-name="Group 1">
        <path id="Path_5" data-name="Path 5" d="M85.5,101.682H82.581a1.2,1.2,0,0,0,0,2.409H85.5a6.347,6.347,0,0,1,6.34,6.338v34.918a6.346,6.346,0,0,1-6.34,6.338H28a6.346,6.346,0,0,1-6.338-6.338v-27.34a1.2,1.2,0,0,0-2.409,0v27.34A8.757,8.757,0,0,0,28,154.1H45.549v4.332a7.075,7.075,0,0,0-6.518,7.044,1.2,1.2,0,0,0,1.2,1.2H73.273a1.2,1.2,0,0,0,1.2-1.2,7.075,7.075,0,0,0-6.518-7.044V154.1H85.5a8.758,8.758,0,0,0,8.749-8.748V110.43A8.758,8.758,0,0,0,85.5,101.682ZM47.958,154.1H65.55V158.4H47.958ZM71.91,164.267H41.6a4.666,4.666,0,0,1,4.5-3.453H67.41A4.666,4.666,0,0,1,71.91,164.267Z" transform="translate(-19.254 -101.682)"/>
      </g>
    </g>
    <g id="Group_4" data-name="Group 4" transform="translate(40.054 39.896)">
      <g id="Group_3" data-name="Group 3" transform="translate(0)">
        <path id="Path_6" data-name="Path 6" d="M163.262,251.872a12.693,12.693,0,0,0-11.04,18.957,1.2,1.2,0,0,0,2.093-1.192,10.282,10.282,0,1,1,17.892,0,1.2,1.2,0,1,0,2.094,1.191,12.7,12.7,0,0,0-11.04-18.956Z" transform="translate(-150.569 -251.872)"/>
      </g>
    </g>
    <g id="Group_6" data-name="Group 6" transform="translate(24.944 21.797)">
      <g id="Group_5" data-name="Group 5" transform="translate(0)">
        <path id="Path_7" data-name="Path 7" d="M103.351,176.232H58.234a.65.65,0,0,1-.649-.649V140.667a.649.649,0,0,1,.649-.649h4.63a1.2,1.2,0,0,0,0-2.409h-4.63a3.062,3.062,0,0,0-3.058,3.058v34.916a3.061,3.061,0,0,0,3.058,3.058h45.117a1.2,1.2,0,1,0,0-2.409Z" transform="translate(-55.176 -137.609)"/>
      </g>
    </g>
    <g id="Group_8" data-name="Group 8" transform="translate(75.93 21.943)">
      <g id="Group_7" data-name="Group 7">
        <path id="Path_8" data-name="Path 8" d="M387.824,138.624a1.2,1.2,0,0,0-.94,2.219.65.65,0,0,1,.4.6v34.916a.65.65,0,0,1-.65.649h-8.37a1.2,1.2,0,1,0,0,2.409h8.37a3.062,3.062,0,0,0,3.06-3.058V141.44A3.055,3.055,0,0,0,387.824,138.624Z" transform="translate(-377.058 -138.528)"/>
      </g>
    </g>
    <g id="Group_10" data-name="Group 10" transform="translate(59.229 14.658)">
      <g id="Group_9" data-name="Group 9">
        <path id="Path_9" data-name="Path 9" d="M284.318,92.54a12.692,12.692,0,1,0,12.691,12.692A12.706,12.706,0,0,0,284.318,92.54Zm0,22.974A10.282,10.282,0,1,1,294.6,105.232,10.294,10.294,0,0,1,284.318,115.514Z" transform="translate(-271.627 -92.54)"/>
      </g>
    </g>
    <g id="Group_12" data-name="Group 12" transform="translate(31.435 0)">
      <g id="Group_11" data-name="Group 11">
        <path id="Path_10" data-name="Path 10" d="M120.537,7.751a1.2,1.2,0,1,0-2.219.938,10.3,10.3,0,1,1-1.54-2.538,1.2,1.2,0,1,0,1.858-1.533,12.646,12.646,0,1,0,1.9,3.133Z" transform="translate(-96.152 0)"/>
      </g>
    </g>
    <g id="Group_14" data-name="Group 14" transform="translate(53.03 21.797)">
      <g id="Group_13" data-name="Group 13">
        <path id="Path_11" data-name="Path 11" d="M237.063,137.607h-3.373a1.2,1.2,0,0,0,0,2.409h3.373a1.2,1.2,0,0,0,0-2.409Z" transform="translate(-232.486 -137.607)"/>
      </g>
    </g>
    <g id="Group_16" data-name="Group 16" transform="translate(57.286 16.106)">
      <g id="Group_15" data-name="Group 15" transform="translate(0)">
        <path id="Path_12" data-name="Path 12" d="M263.049,101.682h-2.49a1.2,1.2,0,0,0,0,2.409h2.489a1.2,1.2,0,0,0,0-2.409Z" transform="translate(-259.355 -101.682)"/>
      </g>
    </g>
    <g id="Group_18" data-name="Group 18" transform="translate(19.254 16.106)">
      <g id="Group_17" data-name="Group 17" transform="translate(0)">
        <path id="Path_13" data-name="Path 13" d="M29.8,101.682H28a8.757,8.757,0,0,0-8.748,8.748v2.409a1.2,1.2,0,1,0,2.409,0V110.43A6.346,6.346,0,0,1,28,104.091h1.8a1.2,1.2,0,1,0,0-2.409Z" transform="translate(-19.255 -101.682)"/>
      </g>
    </g>
    <g id="Group_20" data-name="Group 20" transform="translate(40.071 39.912)">
      <g id="Group_19" data-name="Group 19">
        <path id="Path_14" data-name="Path 14" d="M173.343,271.507H153.357a1.188,1.188,0,0,1-1.032-.6,12.675,12.675,0,1,1,22.051,0A1.188,1.188,0,0,1,173.343,271.507Zm-19.269-2.376h18.552a10.3,10.3,0,1,0-18.552,0Z" transform="translate(-150.674 -251.975)"/>
      </g>
    </g>
    <g id="Group_22" data-name="Group 22" transform="translate(49.188 45.699)">
      <g id="Group_21" data-name="Group 21" transform="translate(0)">
        <path id="Path_15" data-name="Path 15" d="M210.758,292.822c0-.449.42-.869,1.449-.869,1.188,0,1.463.551,1.985.551.638,0,.9-.8.9-1.188,0-.729-.881-1.047-1.712-1.182V289.3a.789.789,0,0,0-.789-.789h-.97a.789.789,0,0,0-.789.789v.916a2.821,2.821,0,0,0-2.333,2.827c0,3.391,4.593,3.086,4.593,4.84,0,.7-.739.956-1.405.956-1.348,0-1.782-1.072-2.463-1.072-.551,0-.985.724-.985,1.217,0,.8,1.117,1.578,2.594,1.811v.7a.789.789,0,0,0,.789.789h.97a.789.789,0,0,0,.789-.789v-.913a2.945,2.945,0,0,0,1.973-2.936C215.351,294,210.758,294.271,210.758,292.822Z" transform="translate(-208.236 -288.508)"/>
      </g>
    </g>
    <g id="Group_24" data-name="Group 24" transform="translate(68.363 20.461)">
      <g id="Group_23" data-name="Group 23" transform="translate(0)">
        <path id="Path_16" data-name="Path 16" d="M331.81,133.488c0-.449.42-.869,1.449-.869,1.188,0,1.463.551,1.985.551.638,0,.9-.8.9-1.188,0-.729-.881-1.047-1.712-1.182v-.836a.789.789,0,0,0-.789-.789h-.97a.789.789,0,0,0-.789.789v.916a2.821,2.821,0,0,0-2.333,2.827c0,3.391,4.593,3.086,4.593,4.84,0,.7-.739.956-1.405.956-1.348,0-1.782-1.072-2.463-1.072-.551,0-.985.725-.985,1.217,0,.8,1.117,1.578,2.594,1.811v.7a.789.789,0,0,0,.789.789h.97a.789.789,0,0,0,.789-.789v-.913a2.945,2.945,0,0,0,1.973-2.936C336.4,134.662,331.81,134.937,331.81,133.488Z" transform="translate(-329.288 -129.174)"/>
      </g>
    </g>
    <g id="Group_26" data-name="Group 26" transform="translate(40.568 5.803)">
      <g id="Group_25" data-name="Group 25">
        <path id="Path_17" data-name="Path 17" d="M156.336,40.948c0-.449.42-.869,1.449-.869,1.188,0,1.463.551,1.985.551.638,0,.9-.8.9-1.188,0-.729-.881-1.047-1.712-1.182v-.836a.789.789,0,0,0-.789-.789h-.97a.789.789,0,0,0-.789.789v.916a2.821,2.821,0,0,0-2.333,2.827c0,3.391,4.593,3.086,4.593,4.84,0,.7-.739.956-1.405.956-1.348,0-1.782-1.072-2.463-1.072-.551,0-.985.725-.985,1.217,0,.8,1.117,1.578,2.594,1.811v.7a.789.789,0,0,0,.789.789h.97a.789.789,0,0,0,.789-.789v-.913a2.945,2.945,0,0,0,1.973-2.936C160.929,42.122,156.336,42.4,156.336,40.948Z" transform="translate(-153.814 -36.634)"/>
      </g>
    </g>
  </g>
</svg>
